<?xml version="1.0" encoding="utf-8"?>
<!-- Generator: Adobe Illustrator 15.1.0, SVG Export Plug-In . SVG Version: 6.00 Build 0)  -->
<!DOCTYPE svg PUBLIC "-//W3C//DTD SVG 1.1//EN" "http://www.w3.org/Graphics/SVG/1.1/DTD/svg11.dtd">
<svg version="1.1" xmlns="http://www.w3.org/2000/svg" xmlns:xlink="http://www.w3.org/1999/xlink" x="0px" y="0px" width="3710px"
	 height="2825.991px" viewBox="0 0 3710 2825.991" enable-background="new 0 0 3710 2825.991" xml:space="preserve">
<g id="Background">
</g>
<g id="Illustration">
	<g>
		<path opacity="0.4" fill="#F4F7FA" d="M1588.99,79.015c0,0-991.65,43.096-1047.914,915.232
			c-56.264,872.138-316.484,1701.942,316.484,1751.475c632.968,49.532,2116.927,145.748,2327.917-373.831
			C3396.467,1852.311,3501.961-103.944,1588.99,79.015z"/>
		<g>
			<g>
				
					<linearGradient id="SVGID_1_" gradientUnits="userSpaceOnUse" x1="-2855.2734" y1="-4083.7419" x2="-2296.3125" y2="-510.377" gradientTransform="matrix(-0.1307 -0.9914 -0.9914 0.1307 -1280.5854 -1415.4161)">
					<stop  offset="0" style="stop-color:#FFC444"/>
					<stop  offset="0.9964" style="stop-color:#F36F56"/>
				</linearGradient>
				<path fill="url(#SVGID_1_)" d="M1317.544,1084.468c-12.184-16.434-24.203-62.928-22.34-76.339
					c12.403-89.253,24.77-257.869,97.154-319.795c12.362-10.576,73.568,31.249,91.361,28.235
					c45.495,17.194,60.211,25.98,111.493,21.08c151.396-14.47,162.837-324.974,393.56-198.696
					c169,92.497,231.09,248.286,422.963,36.064s723.5-409.953,789.139-54.763c37.671,203.846-258.952,245.724-326.177,434.009
					c-63.881,178.92-214.788,224.119-413.688,164.756s-188.47,64.622-268.49,214.594c-96.122,180.15-328.123-11.167-427.697-108.629
					C1684.638,1146.499,1427.509,1000.748,1317.544,1084.468z"/>
				<g>
					<defs>
						<path id="SVGID_2_" d="M1378.184,638.189c-66.214,124.065-138.703,247.584-206.059,372.163
							c50.811,62.11,112.089,133.933,195.199,78.471c115.549-77.11,318.144,57.312,397.845,136.157
							c98.644,97.587,331.468,288.705,427.385,108.617c79.85-149.922,69.605-273.961,268.472-214.579
							c198.868,59.382,349.761,14.146,413.68-164.765c67.264-188.275,363.766-230.104,326.172-434.004
							c-65.507-355.287-597.535-157.305-789.03,54.719s-255.201,57.01-422.77-36.151
							c-228.768-127.186-247.384,186.608-391.489,197.558C1484.617,744.958,1456.644,692.916,1378.184,638.189z"/>
					</defs>
					<clipPath id="SVGID_3_">
						<use xlink:href="#SVGID_2_"  overflow="visible"/>
					</clipPath>
					<g clip-path="url(#SVGID_3_)">
						<path fill="#FCFDFE" d="M1339.639,855.742l1.496-4.084c629.276,230.277,1326.986,62.25,1866.372-449.473l2.997,3.156
							c-255.632,242.519-558.568,414.036-876.061,496.006C2000.66,987.525,1656.663,971.754,1339.639,855.742z"/>
						<path fill="#FCFDFE" d="M2161.156,1413.074c-79.639-165.073-280.559-375.968-447.885-470.114l2.134-3.791
							c167.983,94.518,369.703,306.263,449.669,472.013L2161.156,1413.074z"/>
						<path fill="#FCFDFE" d="M1463.686,899.532l0.307-4.34c99.554,6.979,198.812-36.64,295.015-129.644
							c70.542-68.194,137.827-160.859,199.993-275.428l3.824,2.077c-62.378,114.956-129.933,207.979-200.792,276.479
							C1664.904,862.575,1564.526,906.601,1463.686,899.532z"/>
						<path fill="#FCFDFE" d="M2379.056,887.961l0.081-4.351c188.33,3.504,349.153,119.136,450.907,215.521l-2.994,3.16
							C2725.856,1006.434,2565.99,891.438,2379.056,887.961z"/>
						<path fill="#FCFDFE" d="M2777.976,724.293l-2.783-3.345c163.096-135.754,212.967-352.841,228.18-470.161l4.316,0.559
							C2992.393,369.299,2942.213,587.587,2777.976,724.293z"/>
					</g>
				</g>
			</g>
		</g>
		<g>
			<g>
				<defs>
					<path id="SVGID_4_" d="M1003.387,2297.221c-102.354-64.633-203.481-131.734-303.298-201.256
						c-2.487,0.818,67.115-253.084,235.487-327.787c330.726-142.705,276.339-426.457,290.383-574.082
						c11.63-211.792,144.549-416.56,325.962-286.757c178.807,121.791,385.867-265.682,489.065-589.146
						c37.91-162.893,260.39-282.308,420.261-261.272c164.813,17.849,267.016,176.148,178.471,495.084
						c-86.804,376.244-432.415,473.146-603.114,605.408c-167.785,129.744-14.563,362.809-254.135,437.47
						c-204.69,69.968-430.433,85.427-438.289,283.8C1339.003,2075.958,1262.096,2205.031,1003.387,2297.221z"/>
				</defs>
				<clipPath id="SVGID_5_">
					<use xlink:href="#SVGID_4_"  overflow="visible"/>
				</clipPath>
				
					<linearGradient id="SVGID_6_" gradientUnits="userSpaceOnUse" x1="1648.8555" y1="-1034.0376" x2="788.8939" y2="1410.0657" gradientTransform="matrix(-0.5913 -0.8064 -0.8064 0.5913 2581.2061 2046.8645)">
					<stop  offset="0" style="stop-color:#AA80F9"/>
					<stop  offset="0.9964" style="stop-color:#6165D7"/>
				</linearGradient>
				<path clip-path="url(#SVGID_5_)" fill="url(#SVGID_6_)" d="M1003.387,2297.221c-102.354-64.633-203.481-131.734-303.298-201.256
					c-2.487,0.818,67.115-253.084,235.487-327.787c330.726-142.705,276.339-426.457,290.383-574.082
					c12.26-211.353,135.021-391.691,320.719-312.851c207.735,83.439,394.877-238.664,494.309-563.053
					c37.91-162.893,260.39-282.308,420.261-261.272c164.813,17.849,267.016,176.148,178.471,495.084
					c-86.804,376.244-432.415,473.146-603.114,605.408c-167.785,129.744-14.563,362.809-254.135,437.47
					c-204.69,69.968-430.433,85.427-438.289,283.8C1339.003,2075.958,1262.096,2205.031,1003.387,2297.221z"/>
				<g clip-path="url(#SVGID_5_)">
					<path fill="#BEB8F2" d="M845.206,2243.955c0.905-2.128,327.495-456.584,724.121-864.134
						c59.858-67.828,122.209-135.416,182.501-200.779c335.784-363.998,652.946-707.811,704.07-1223.793l7.175,0.709
						c-51.365,518.388-369.32,863.062-705.946,1227.974c-60.267,65.333-122.589,132.891-182.515,200.79
						c-398.769,409.757-721.201,859.373-722.894,862.31L845.206,2243.955z"/>
					<path fill="#BEB8F2" d="M2060.613,840.671l-2.942-6.583c182.124-81.494,414.803-208.931,539.805-277.392
						c101.168-55.408,101.436-55.255,104.556-53.228l-1.949,3.031l0.273,3.529c-4.65,1.089-46.473,23.993-99.419,52.99
						C2475.847,631.529,2243.008,759.056,2060.613,840.671z"/>
					<path fill="#BEB8F2" d="M2178.341,669.647c43.425-165.792,25.019-295.821,1.931-375.708
						c-25.149-87.019-62.425-138.432-68.117-142.281l1.568-2.317l-0.782-4.468c2.13-0.374,3.796,0.931,6.132,3.467
						c33.42,36.333,142.605,231.597,66.244,523.131L2178.341,669.647z"/>
					<path fill="#BEB8F2" d="M1326.957,1654.385l-6.202-3.682c173.963-293.053,91.796-674.842,48.394-825.389
						c-2.333-8.086-3.076-10.706-3.214-11.965l7.169-0.775l-3.584,0.387l3.58-0.413c0.126,0.892,1.45,5.469,2.975,10.768
						c31.302,108.571,50.306,216.54,56.485,320.903C1444.428,1344.705,1408.898,1516.348,1326.957,1654.385z"/>
					<path fill="#BEB8F2" d="M1443.433,1524.375l-4.067-5.954c224.944-153.671,507.736-46.636,512.005-44.149
						c0.018,0.01,0.031,0.018,0.038,0.025l1.086,4.172l-3.688,2.235l0.329-3.558l-1.666,3.144
						C1944.878,1479.058,1666.131,1372.239,1443.433,1524.375z M1949.472,1473.527l-0.332,3.581L1949.472,1473.527z"/>
					<path fill="#BEB8F2" d="M899.749,2170.231c30.135-61.754,55.111-178.766,2.99-385.515c-2.959-11.731-2.959-11.731-1.959-13.324
						l6.105,3.835l-3.054-1.918l3.575-0.043c0.092,0.843,1.126,4.942,2.32,9.688c52.656,208.863,27.164,327.604-3.495,390.438
						L899.749,2170.231z"/>
					<path fill="#BEB8F2" d="M986.443,2067.359l-5.517-4.641c82.099-97.607,274.683-110.25,382.172-109.098
						c3.408,0.036,5.6,0.065,6.409,0.019l0.412,7.197c-0.867,0.051-3.229,0.031-6.9-0.008
						C1256.803,1959.693,1066.637,1972.02,986.443,2067.359z"/>
				</g>
			</g>
		</g>
		<g>
			<linearGradient id="SVGID_7_" gradientUnits="userSpaceOnUse" x1="756.9023" y1="1508.9927" x2="1219.1761" y2="1460.6954">
				<stop  offset="0.0036" style="stop-color:#26264F"/>
				<stop  offset="1" style="stop-color:#444B8C"/>
			</linearGradient>
			<path fill="url(#SVGID_7_)" d="M566.42,2470.074c-55.225,3.227-100.368-35.377-100.368-86.069V556.962
				c0-50.691,45.144-90.295,100.368-88.291l2606.759,94.592c42.234,1.533,76.453,38.609,76.453,82.654v1587.509
				c0,44.046-34.219,81.88-76.453,84.348L566.42,2470.074z"/>
			<linearGradient id="SVGID_8_" gradientUnits="userSpaceOnUse" x1="1742.3281" y1="2921.2603" x2="1840.2704" y2="2780.9646">
				<stop  offset="0" style="stop-color:#444B8C"/>
				<stop  offset="0.9964" style="stop-color:#26264F"/>
			</linearGradient>
			<path fill="url(#SVGID_8_)" d="M2265.922,2672.297c-41.666-14.5-72.807-51.6-81.588-97.199l-60.643-314.896l-518.75,19.327
				l-63.843,328.052c-8.941,45.943,26.851,92.036,68.073,108.958l217.032,89.093c40.367,16.571,83.759,23.172,126.885,19.301
				l458.671-41.169c13.408-1.203,24.163-12.261,25.724-26.447s10.955-30.116-1.831-34.565L2265.922,2672.297z"/>
			<linearGradient id="SVGID_9_" gradientUnits="userSpaceOnUse" x1="2038.8145" y1="2885.2964" x2="1888.9161" y2="2071.5649">
				<stop  offset="0" style="stop-color:#444B8C"/>
				<stop  offset="0.9964" style="stop-color:#26264F"/>
			</linearGradient>
			<path fill="url(#SVGID_9_)" d="M2271.055,2653.146c-41.623-14.317-72.732-50.951-81.506-95.978l-60.58-310.938l-506.105,19.104
				l-63.779,323.928c-8.932,45.366,14.701,90.858,55.881,107.567l216.815,87.974c40.327,16.362,83.674,22.88,126.758,19.058
				l458.208-40.65c13.395-1.188,24.14-12.108,25.698-26.116c1.56-14.009-6.499-27.23-19.272-31.625L2271.055,2653.146z"/>
			<g>
				<g>
					<linearGradient id="SVGID_10_" gradientUnits="userSpaceOnUse" x1="2408.5918" y1="638.9414" x2="3158.7266" y2="-431.674">
						<stop  offset="0" style="stop-color:#444B8C"/>
						<stop  offset="0.9964" style="stop-color:#26264F"/>
					</linearGradient>
					<path fill="url(#SVGID_10_)" d="M587.059,2470.074c-55.225,3.227-100.368-35.377-100.368-86.069V556.962
						c0-50.691,45.144-90.295,100.368-88.291l2606.759,94.592c42.234,1.533,76.453,38.609,76.453,82.654v1587.509
						c0,44.046-34.219,81.88-76.453,84.348L587.059,2470.074z"/>
					<linearGradient id="SVGID_11_" gradientUnits="userSpaceOnUse" x1="2082.7842" y1="766.0596" x2="1144.4645" y2="3746.2917">
						<stop  offset="0" style="stop-color:#444B8C"/>
						<stop  offset="0.9964" style="stop-color:#26264F"/>
					</linearGradient>
					<path fill="url(#SVGID_11_)" d="M3193.818,600.602L587.06,511.264c-29.529-1.012-53.528,20.117-53.528,47.195v1421.475v401.535
						c0,27.08,23.999,47.677,53.528,46.011l2606.759-147.046c22.634-1.277,40.941-21.462,40.941-45.088v-362.8V644.783
						C3234.76,621.158,3216.452,601.378,3193.818,600.602z"/>
					<path fill="#FFFFFF" d="M587.059,2272.147c-11.498,0.564-20.86-7.55-20.86-18.084V559.502c0-10.534,9.362-18.799,20.86-18.421
						l2606.759,85.66c8.827,0.29,16.003,8.027,16.003,17.245v1482.772c0,9.218-7.176,17.071-16.003,17.505L587.059,2272.147z"/>
				</g>
				<g>
					<linearGradient id="SVGID_12_" gradientUnits="userSpaceOnUse" x1="2133.6465" y1="948.4893" x2="1253.9885" y2="2762.3276">
						<stop  offset="0.0036" style="stop-color:#E38DDD"/>
						<stop  offset="1" style="stop-color:#9571F6"/>
					</linearGradient>
					<polygon fill="url(#SVGID_12_)" points="3105.044,2052.894 701.403,2158.452 701.403,794.338 3105.044,844.789 					"/>
					<linearGradient id="SVGID_13_" gradientUnits="userSpaceOnUse" x1="1901.3555" y1="732.8433" x2="1849.4487" y2="1162.5128">
						<stop  offset="0" style="stop-color:#FF9085"/>
						<stop  offset="1" style="stop-color:#FB6FBB"/>
					</linearGradient>
					<polygon fill="url(#SVGID_13_)" points="3105.044,803.519 701.403,747.738 701.403,631.237 3105.044,700.342 					"/>
					<g>
						<path fill="#FFFFFF" d="M2922.485,747.188c0,7.367-5.801,13.193-12.963,13.011c-7.166-0.181-12.979-6.308-12.979-13.685
							c0-7.377,5.813-13.203,12.979-13.012C2916.685,733.693,2922.485,739.82,2922.485,747.188z"/>
						<path fill="#FFFFFF" d="M2975.683,748.569c0,7.347-5.769,13.156-12.89,12.976c-7.126-0.18-12.906-6.29-12.906-13.646
							s5.78-13.165,12.906-12.975C2969.914,735.114,2975.683,741.223,2975.683,748.569z"/>
						<path fill="#FFFFFF" d="M3028.579,749.944c0,7.325-5.736,13.119-12.817,12.939c-7.086-0.178-12.834-6.271-12.834-13.606
							c0-7.336,5.748-13.129,12.834-12.94C3022.843,736.526,3028.579,742.618,3028.579,749.944z"/>
					</g>
					<g opacity="0.68">
						<polygon fill="#FFFFFF" points="2618.564,1835.182 753.831,1893.731 753.831,829.773 2618.564,865.859 						"/>
					</g>
					<g>
						<g>
							<polygon opacity="0.68" fill="#FFFFFF" points="3079.369,1147.652 2651.177,1145.635 2651.177,866.49 3079.369,874.776 
															"/>
						</g>
						<polygon fill="#FFFFFF" points="3079.369,1197.64 2651.177,1196.77 2651.177,1175.868 3079.369,1177.207 						"/>
						<polygon fill="#FFFFFF" points="2920.047,1232.911 2651.177,1232.875 2651.177,1211.972 2920.047,1212.303 						"/>
					</g>
					<g>
						<g>
							<polygon opacity="0.68" fill="#FFFFFF" points="3079.369,1547.952 2651.177,1555.13 2651.177,1275.985 3079.369,1275.076 
															"/>
						</g>
						<polygon fill="#FFFFFF" points="3079.369,1597.939 2651.177,1606.266 2651.177,1585.364 3079.369,1577.506 						"/>
						<polygon fill="#FFFFFF" points="2920.047,1636.632 2651.177,1642.371 2651.177,1621.468 2920.047,1616.025 						"/>
					</g>
					<g>
						<g>
							<polygon opacity="0.68" fill="#FFFFFF" points="3079.369,1948.251 2651.177,1964.625 2651.177,1685.481 3079.369,1675.375 
															"/>
						</g>
						<polygon fill="#FFFFFF" points="3079.369,1998.239 2651.177,2015.762 2651.177,1994.86 3079.369,1977.805 						"/>
						<polygon fill="#FFFFFF" points="2920.047,2040.354 2651.177,2051.866 2651.177,2030.963 2920.047,2019.747 						"/>
					</g>
					<g>
						<polygon fill="#FFFFFF" points="2044.282,1965.707 753.831,2013.603 753.831,1943.659 2044.282,1900.067 						"/>
						<polygon fill="#FFFFFF" points="2618.564,1944.391 2434.448,1951.225 2434.448,1886.887 2618.564,1880.668 						"/>
						<polygon fill="#FFFFFF" points="2406.008,1952.28 2217.752,1959.267 2217.752,1894.208 2406.008,1887.847 						"/>
						<polygon fill="#FFFFFF" points="1344.214,2073.838 753.831,2098.131 753.831,2063.159 1344.214,2039.85 						"/>
					</g>
				</g>
			</g>
		</g>
		<g>
			<linearGradient id="SVGID_14_" gradientUnits="userSpaceOnUse" x1="624.1104" y1="2240.8491" x2="1553.6416" y2="2240.8491">
				<stop  offset="0" style="stop-color:#FFC444"/>
				<stop  offset="0.9964" style="stop-color:#F36F56"/>
			</linearGradient>
			<path fill="url(#SVGID_14_)" d="M649.882,2649.195l-12.172-12.754c-19.408-20.336-17.858-52.345,3.468-71.431l836.139-748.344
				l76.325,86.803l-830.392,747.85C702.074,2670.389,669.229,2669.466,649.882,2649.195z"/>
			<linearGradient id="SVGID_15_" gradientUnits="userSpaceOnUse" x1="1278.3574" y1="1481.0903" x2="2459.7388" y2="1481.0903">
				<stop  offset="0" style="stop-color:#FFC444"/>
				<stop  offset="0.9964" style="stop-color:#F36F56"/>
			</linearGradient>
			<path fill="url(#SVGID_15_)" d="M2318.543,1095.32c-210.896-259.59-584.87-301.504-834.854-84.583
				c-254.574,220.901-275.104,617.288-46.619,875.97c223.122,252.608,595.412,272.013,832.431,52.187
				C2502.423,1722.867,2524.643,1349.005,2318.543,1095.32z M1509.778,1821.428c-190.287-216.917-172.913-548.221,39.331-733.42
				c209.037-182.402,522.996-148.736,700.912,68.831c174.502,213.393,155.938,528.812-41.04,710.573
				C2009.088,2051.862,1696.315,2034.072,1509.778,1821.428z"/>
			<linearGradient id="SVGID_16_" gradientUnits="userSpaceOnUse" x1="624.1113" y1="2240.8481" x2="1553.6411" y2="2240.8481">
				<stop  offset="0" style="stop-color:#FFC444"/>
				<stop  offset="0.9964" style="stop-color:#F36F56"/>
			</linearGradient>
			<path opacity="0.3" fill="url(#SVGID_16_)" d="M1477.316,1816.667l-106.611,95.418c9.852,43.55,3.813,73.92-6.447,95.472
				c-38.596,81.079-148.639,63.229-237.19,178.384c-44.435,57.786-24.264,72.084-69.315,118.92
				c-74.479,77.432-138.739,47.844-204.24,117.26c-66.253,70.213-41.701,144.138-88.991,163.014
				c-20.231,8.076-52.288,5.505-105.855-35.774l-17.487,15.651c-21.325,19.086-22.876,51.093-3.467,71.432l12.171,12.752
				c19.347,20.271,52.191,21.194,73.368,2.123l830.391-747.849L1477.316,1816.667z"/>
			
				<linearGradient id="SVGID_17_" gradientUnits="userSpaceOnUse" x1="5108.5166" y1="321.0796" x2="4515.2178" y2="-343.2113" gradientTransform="matrix(0.9968 0.0802 -0.0802 0.9968 -2774.1548 1285.2504)">
				<stop  offset="0" style="stop-color:#FFC444"/>
				<stop  offset="0.9964" style="stop-color:#F36F56"/>
			</linearGradient>
			<path fill="url(#SVGID_17_)" d="M2349.105,1111.795c-210.896-259.589-584.87-301.504-834.855-84.583
				c-254.573,220.902-275.104,617.289-46.617,875.971c223.121,252.607,595.41,272.012,832.43,52.187
				C2532.985,1739.341,2555.205,1365.481,2349.105,1111.795z M1540.34,1837.904c-190.286-216.918-172.913-548.222,39.331-733.421
				c209.038-182.401,522.997-148.736,700.913,68.831c174.502,213.393,155.938,528.813-41.04,710.572
				C2039.65,2068.336,1726.878,2050.547,1540.34,1837.904z"/>
			<linearGradient id="SVGID_18_" gradientUnits="userSpaceOnUse" x1="1344.1699" y1="1497.9556" x2="2458.5449" y2="1497.9556">
				<stop  offset="0" style="stop-color:#FFC444"/>
				<stop  offset="0.9964" style="stop-color:#F36F56"/>
			</linearGradient>
			<path fill="url(#SVGID_18_)" d="M2324.912,1133.516c-199.267-244.709-552.011-283.639-787.474-78.916
				c-239.532,208.261-258.953,581.56-44.049,825.457c210.145,238.495,561.391,257.394,785.315,50.086
				C2498.974,1726.22,2519.896,1372.966,2324.912,1133.516z M1540.34,1837.904c-190.286-216.918-172.913-548.222,39.331-733.421
				c209.038-182.401,522.997-148.736,700.913,68.831c174.502,213.393,155.938,528.813-41.04,710.572
				C2039.65,2068.336,1726.878,2050.547,1540.34,1837.904z"/>
		</g>
		<g>
			<g>
				<path fill="#26264F" d="M1585.599,689.995c33.277,16.887,75.077,1.368,93.362-34.664c18.286-36.031,6.133-78.932-27.144-95.818
					c-1.723-0.876-3.483-1.611-5.247-2.314c6.178-19.937,10.835-40.03,13.957-60.13c1.907-0.005,3.821-0.038,5.766-0.212
					c37.961-3.392,68.083-38.28,67.282-77.929c-0.802-39.649-32.227-69.043-70.188-65.652c-1.984,0.179-3.934,0.492-5.872,0.836
					c-3.968-19.647-9.404-38.841-16.263-57.416c1.746-1.021,3.483-2.078,5.182-3.267c32.473-22.76,42.849-67.672,23.173-100.313
					c-19.675-32.641-61.951-40.65-94.425-17.891c-1.665,1.167-3.229,2.426-4.777,3.705c-12.83-14.178-26.902-27.318-42.127-39.31
					c1.069-1.755,2.117-3.533,3.064-5.399c18.286-36.032,42.183-75.392,8.646-91.756c-77.582-37.856-110.864-5.432-129.15,30.6
					c-0.948,1.867-1.765,3.762-2.55,5.661c-18.667-5.208-37.579-8.809-56.598-10.793c0.119-2.003,0.21-4.009,0.17-6.042
					c-0.803-39.647,10.958-61.105-27.148-61.839c-83.095-1.601-111.124,34.472-110.322,74.118c0.042,2.074,0.217,4.099,0.421,6.112
					c-19.041,5.431-37.741,12.375-55.943,20.771c-0.865-1.769-1.764-3.525-2.791-5.233c-19.676-32.641-61.95-40.649-94.426-17.888
					c-32.475,22.761-42.851,67.672-23.175,100.313c1.007,1.673,2.113,3.236,3.233,4.779c-14.381,14.387-27.848,30.009-40.291,46.767
					c-1.609-1.01-3.243-1.996-4.967-2.871c-33.276-16.888-75.076-1.369-93.361,34.664c-18.286,36.032-6.134,78.932,27.143,95.819
					c1.725,0.875,3.484,1.61,5.249,2.314c-6.178,19.937-10.836,40.03-13.958,60.129c-1.907,0.006-3.821,0.039-5.764,0.211
					c-37.964,3.393-68.086,38.281-67.284,77.931c0.803,39.649,32.228,69.04,70.189,65.649c1.982-0.177,3.932-0.489,5.869-0.834
					c3.969,19.648,9.405,38.84,16.264,57.416c-1.746,1.022-3.483,2.078-5.181,3.268c-32.474,22.76-42.849,67.672-23.174,100.313
					c19.675,32.642,84.797,47.795,117.271,25.035c1.664-1.167-19.616-9.571-18.069-10.849c12.831,14.179,26.903,27.318,42.128,39.31
					c-1.069,1.755-2.118,3.533-3.063,5.399c-18.287,36.032-6.135,78.932,27.143,95.819c33.277,16.888,75.076,1.369,93.362-34.663
					c0.947-1.867,1.763-3.762,2.548-5.661c18.667,5.208,37.579,8.809,56.599,10.793c-0.118,2.003-0.21,4.01-0.169,6.042
					c0.802,39.647,32.226,69.04,70.188,65.65c37.961-3.392,68.085-38.282,67.282-77.93c-0.042-2.072-0.216-4.098-0.422-6.11
					c19.043-5.431,37.743-12.374,55.943-20.771c0.866,1.768,1.765,3.525,2.792,5.231c19.676,32.64,61.952,40.652,94.426,17.89
					c32.475-22.762,42.851-67.672,23.175-100.315c-1.008-1.67-2.112-3.234-3.233-4.777c14.38-14.387,27.848-30.009,40.291-46.766
					C1582.243,688.134,1583.875,689.12,1585.599,689.995z M1170.812,695.334c-120.82-61.316-164.942-217.075-98.551-347.899
					c66.392-130.824,218.157-187.171,338.978-125.855c120.82,61.315,164.943,217.074,98.553,347.897
					C1443.398,700.301,1291.633,756.649,1170.812,695.334z"/>
				<path fill="#26264F" d="M1666.293,496.856c37.961-3.392,68.083-38.282,67.282-77.93c-0.802-39.648-32.227-69.042-70.188-65.65
					c-1.984,0.177-3.934,0.492-5.872,0.835c-3.967-19.648-9.404-38.84-16.263-57.416c1.746-1.021,3.483-2.078,5.182-3.268
					c32.473-22.76,72.644-77.748,49.725-108.197c-43.501-57.792-88.503-32.765-120.977-10.006c-1.665,1.167-3.229,2.426-4.776,3.704
					c-12.831-14.179-26.903-27.317-42.128-39.309c1.069-1.754,2.117-3.532,3.064-5.398c9.952-19.61,10.827-41.229,4.248-59.607
					c-31.36,55.219-62.298,110.67-92.68,166.423c96.39,70.605,127.099,209.776,66.878,328.441
					c-51.03,100.557-152.499,157.034-251.586,149.978c-4.417,11.463-8.755,22.99-13.486,34.342
					c-12.838,30.81-27.424,60.985-42.029,91.121c9.189,1.73,18.418,3.092,27.673,4.06c-0.118,2.004-0.21,4.011-0.169,6.042
					c0.802,39.649,24.88,73.331,93.68,69.669c38.059-2.025,44.593-42.299,43.79-81.948c-0.042-2.071-0.215-4.097-0.421-6.11
					c19.042-5.431,37.742-12.375,55.942-20.772c0.866,1.769,1.765,3.525,2.793,5.231c19.675,32.642,87.913,46.5,120.388,23.738
					c32.476-22.762,16.888-73.52-2.788-106.162c-1.008-1.672-2.112-3.235-3.233-4.779c14.38-14.387,27.849-30.009,40.291-46.765
					c1.61,1.01,3.242,1.997,4.966,2.869c33.277,16.89,75.077,1.368,93.364-34.664c18.284-36.03,6.132-78.932-27.145-95.818
					c-1.724-0.876-3.484-1.61-5.248-2.313c6.178-19.937,10.835-40.031,13.957-60.129
					C1662.435,497.063,1664.349,497.029,1666.293,496.856z"/>
				<linearGradient id="SVGID_19_" gradientUnits="userSpaceOnUse" x1="884.249" y1="462.52" x2="1769.3789" y2="462.52">
					<stop  offset="0" style="stop-color:#AA80F9"/>
					<stop  offset="0.9964" style="stop-color:#6165D7"/>
				</linearGradient>
				<path fill="url(#SVGID_19_)" d="M1621.388,694.057c33.276,16.888,75.076,1.369,93.362-34.664
					c18.285-36.031,6.133-78.931-27.145-95.818c-1.724-0.875-3.482-1.61-5.248-2.314c6.179-19.937,10.836-40.03,13.957-60.13
					c1.908-0.005,3.822-0.037,5.767-0.211c37.961-3.391,68.084-38.28,67.282-77.929c-0.802-39.65-32.226-69.042-70.188-65.651
					c-1.984,0.178-3.933,0.491-5.871,0.836c-3.969-19.648-9.405-38.841-16.264-57.416c1.746-1.022,3.483-2.078,5.181-3.268
					c32.474-22.76,42.85-67.672,23.175-100.313c-19.676-32.641-61.951-40.65-94.426-17.891c-1.664,1.167-3.229,2.427-4.776,3.704
					c-12.831-14.178-26.903-27.317-42.128-39.309c1.07-1.755,2.117-3.533,3.065-5.399c18.285-36.031,6.133-78.932-27.144-95.819
					c-33.277-16.888-75.076-1.369-93.362,34.663c-0.947,1.867-1.764,3.763-2.549,5.662c-18.667-5.208-37.579-8.809-56.598-10.794
					c0.118-2.004,0.209-4.01,0.17-6.042c-0.804-39.647-32.228-69.04-70.189-65.649c-37.961,3.39-68.084,38.281-67.282,77.928
					c0.042,2.072,0.216,4.098,0.421,6.11c-19.041,5.432-37.741,12.375-55.942,20.772c-0.865-1.769-1.764-3.526-2.791-5.233
					c-19.675-32.641-61.952-40.65-94.427-17.889c-32.475,22.762-42.849,67.673-23.174,100.313c1.008,1.672,2.111,3.236,3.233,4.778
					c-14.38,14.387-27.849,30.008-40.291,46.767c-1.61-1.009-3.243-1.996-4.967-2.87c-33.277-16.889-75.076-1.368-93.362,34.663
					s-6.134,78.932,27.144,95.819c1.725,0.875,3.483,1.61,5.248,2.313c-6.178,19.938-10.836,40.03-13.957,60.13
					c-1.906,0.006-3.821,0.039-5.765,0.21c-37.962,3.393-68.086,38.282-67.283,77.93c0.802,39.649,32.227,69.04,70.188,65.65
					c1.982-0.177,3.932-0.489,5.869-0.834c3.969,19.647,9.405,38.84,16.264,57.416c-1.745,1.021-3.483,2.077-5.181,3.268
					c-32.474,22.759-42.849,67.672-23.174,100.313c19.676,32.642,61.951,40.651,94.425,17.892c1.665-1.167,3.231-2.426,4.776-3.705
					c12.832,14.179,26.903,27.318,42.128,39.31c-1.069,1.755-2.117,3.533-3.065,5.4c-18.285,36.031-6.133,78.931,27.145,95.819
					c33.276,16.887,75.076,1.368,93.362-34.664c0.947-1.866,1.763-3.762,2.548-5.661c18.667,5.208,37.58,8.808,56.6,10.793
					c-0.118,2.002-0.211,4.01-0.171,6.042c0.804,39.647,32.228,69.041,70.188,65.649c37.961-3.391,68.085-38.282,67.282-77.929
					c-0.041-2.072-0.215-4.098-0.421-6.11c19.042-5.432,37.741-12.374,55.942-20.772c0.866,1.768,1.766,3.525,2.794,5.23
					c19.675,32.642,61.95,40.653,94.424,17.892c32.476-22.762,42.851-67.672,23.176-100.315c-1.009-1.67-2.112-3.235-3.234-4.777
					c14.38-14.388,27.848-30.009,40.291-46.767C1618.031,692.195,1619.663,693.182,1621.388,694.057z M1206.602,699.396
					c-120.821-61.315-164.945-217.074-98.552-347.898c66.393-130.824,218.156-187.171,338.977-125.855
					c120.82,61.315,164.943,217.074,98.553,347.898C1479.187,704.365,1327.422,760.711,1206.602,699.396z"/>
			</g>
			<g>
				<path fill="#26264F" d="M921.207,1270.912c24.445,12.405,55.151,1.005,68.583-25.464c13.434-26.469,4.507-57.983-19.939-70.388
					c-1.266-0.644-2.559-1.183-3.854-1.7c4.538-14.646,7.96-29.406,10.253-44.172c1.401-0.004,2.808-0.027,4.236-0.155
					c27.886-2.491,50.014-28.12,49.425-57.247s-23.673-50.719-51.561-48.228c-1.457,0.131-2.889,0.361-4.313,0.615
					c-2.915-14.433-6.909-28.533-11.947-42.178c1.283-0.751,2.56-1.527,3.806-2.4c23.855-16.719,31.478-49.711,17.024-73.69
					c-14.454-23.978-45.51-29.862-69.365-13.143c-1.223,0.857-2.372,1.782-3.509,2.722c-9.426-10.416-19.763-20.068-30.946-28.877
					c0.785-1.289,1.555-2.595,2.251-3.966c13.433-26.469,30.987-55.383,6.351-67.404c-56.992-27.81-81.441-3.99-94.874,22.479
					c-0.696,1.372-1.296,2.764-1.873,4.159c-13.713-3.826-27.605-6.47-41.577-7.929c0.088-1.471,0.154-2.945,0.125-4.439
					c-0.59-29.125,8.051-44.888-19.942-45.427c-61.042-1.176-81.633,25.323-81.044,54.447c0.031,1.523,0.159,3.011,0.31,4.489
					c-13.987,3.99-27.725,9.09-41.096,15.259c-0.635-1.299-1.296-2.59-2.051-3.844c-14.453-23.978-45.509-29.861-69.365-13.141
					c-23.855,16.721-31.478,49.712-17.023,73.69c0.739,1.229,1.551,2.377,2.374,3.51c-10.563,10.569-20.456,22.045-29.597,34.355
					c-1.183-0.742-2.383-1.466-3.648-2.109c-24.445-12.405-55.151-1.005-68.584,25.464c-13.434,26.469-4.506,57.983,19.939,70.389
					c1.267,0.643,2.56,1.183,3.855,1.7c-4.537,14.646-7.96,29.406-10.253,44.171c-1.401,0.004-2.808,0.028-4.234,0.155
					c-27.889,2.492-50.016,28.121-49.427,57.248c0.589,29.126,23.674,50.717,51.561,48.226c1.457-0.13,2.889-0.359,4.312-0.613
					c2.916,14.434,6.909,28.532,11.947,42.178c-1.282,0.75-2.559,1.527-3.806,2.4c-23.855,16.719-31.477,49.712-17.023,73.69
					c14.453,23.979,62.292,35.111,86.147,18.391c1.222-0.857-14.41-7.031-13.273-7.97c9.426,10.416,19.763,20.068,30.946,28.877
					c-0.785,1.289-1.556,2.595-2.25,3.966c-13.434,26.469-4.507,57.983,19.938,70.389s55.151,1.005,68.584-25.464
					c0.696-1.371,1.296-2.764,1.872-4.158c13.714,3.825,27.605,6.471,41.577,7.928c-0.087,1.473-0.154,2.946-0.124,4.439
					c0.589,29.125,23.674,50.717,51.56,48.227c27.887-2.491,50.016-28.122,49.426-57.247c-0.031-1.522-0.158-3.011-0.31-4.489
					c13.988-3.989,27.726-9.09,41.096-15.258c0.636,1.298,1.296,2.59,2.052,3.842c14.453,23.978,45.509,29.863,69.365,13.143
					c23.855-16.721,31.478-49.712,17.023-73.691c-0.74-1.228-1.552-2.376-2.375-3.509c10.563-10.569,20.456-22.044,29.598-34.354
					C918.741,1269.544,919.94,1270.269,921.207,1270.912z M616.504,1274.834c-88.755-45.043-121.167-159.463-72.396-255.567
					s160.258-137.496,249.013-92.454c88.755,45.042,121.168,159.462,72.396,255.566S705.259,1319.876,616.504,1274.834z"/>
				<path fill="#26264F" d="M980.485,1129.032c27.886-2.492,50.014-28.122,49.425-57.247c-0.589-29.126-23.673-50.719-51.561-48.227
					c-1.457,0.13-2.889,0.361-4.313,0.614c-2.914-14.434-6.909-28.532-11.947-42.178c1.283-0.75,2.56-1.527,3.806-2.401
					c23.855-16.719,53.366-57.113,36.529-79.482c-31.955-42.455-65.015-24.069-88.87-7.35c-1.223,0.857-2.372,1.782-3.509,2.721
					c-9.426-10.416-19.763-20.067-30.946-28.876c0.785-1.289,1.555-2.594,2.251-3.965c7.311-14.406,7.953-30.287,3.12-43.788
					c-23.037,40.564-45.764,81.299-68.083,122.254c70.809,51.867,93.367,154.102,49.13,241.273
					c-37.488,73.869-112.026,115.358-184.815,110.174c-3.245,8.42-6.432,16.888-9.908,25.228
					c-9.431,22.633-20.146,44.8-30.874,66.938c6.75,1.271,13.53,2.271,20.328,2.982c-0.087,1.473-0.154,2.946-0.124,4.438
					c0.589,29.126,18.277,53.869,68.817,51.179c27.958-1.488,32.758-31.072,32.168-60.199c-0.031-1.521-0.158-3.01-0.31-4.488
					c13.988-3.989,27.726-9.091,41.096-15.259c0.636,1.299,1.296,2.59,2.052,3.843c14.454,23.979,64.581,34.158,88.437,17.438
					c23.856-16.721,12.406-54.007-2.048-77.986c-0.74-1.228-1.552-2.376-2.375-3.51c10.563-10.569,20.457-22.044,29.598-34.354
					c1.183,0.742,2.382,1.466,3.648,2.108c24.445,12.407,55.151,1.005,68.584-25.464c13.433-26.468,4.507-57.983-19.939-70.388
					c-1.267-0.643-2.56-1.183-3.855-1.699c4.538-14.646,7.96-29.407,10.253-44.171
					C977.65,1129.183,979.057,1129.159,980.485,1129.032z"/>
				<linearGradient id="SVGID_20_" gradientUnits="userSpaceOnUse" x1="405.9941" y1="1103.8081" x2="1056.2119" y2="1103.8081">
					<stop  offset="0" style="stop-color:#AA80F9"/>
					<stop  offset="0.9964" style="stop-color:#6165D7"/>
				</linearGradient>
				<path fill="url(#SVGID_20_)" d="M947.497,1273.896c24.444,12.406,55.151,1.005,68.584-25.464
					c13.434-26.469,4.506-57.983-19.939-70.389c-1.267-0.643-2.56-1.183-3.855-1.7c4.538-14.646,7.96-29.406,10.252-44.171
					c1.402-0.004,2.809-0.028,4.236-0.156c27.887-2.491,50.015-28.12,49.426-57.246c-0.589-29.127-23.673-50.719-51.56-48.228
					c-1.457,0.131-2.889,0.361-4.313,0.614c-2.915-14.434-6.909-28.532-11.947-42.178c1.283-0.751,2.56-1.526,3.807-2.4
					c23.854-16.719,31.477-49.712,17.023-73.69c-14.453-23.978-45.51-29.862-69.365-13.143c-1.223,0.857-2.372,1.783-3.509,2.722
					c-9.426-10.416-19.763-20.067-30.947-28.876c0.787-1.289,1.556-2.595,2.252-3.966c13.433-26.469,4.506-57.983-19.939-70.389
					c-24.445-12.406-55.151-1.005-68.584,25.463c-0.696,1.372-1.296,2.764-1.873,4.159c-13.712-3.826-27.605-6.471-41.576-7.929
					c0.087-1.472,0.153-2.946,0.124-4.438c-0.59-29.125-23.674-50.717-51.561-48.226c-27.886,2.49-50.014,28.121-49.425,57.246
					c0.03,1.522,0.157,3.01,0.309,4.489c-13.987,3.99-27.725,9.091-41.096,15.26c-0.636-1.299-1.295-2.59-2.05-3.845
					c-14.453-23.978-45.51-29.862-69.365-13.141c-23.856,16.721-31.478,49.712-17.024,73.69c0.74,1.228,1.551,2.377,2.375,3.51
					c-10.563,10.569-20.457,22.044-29.598,34.354c-1.183-0.741-2.382-1.466-3.648-2.108c-24.445-12.406-55.151-1.005-68.584,25.464
					s-4.506,57.983,19.939,70.389c1.267,0.643,2.559,1.183,3.855,1.7c-4.538,14.646-7.96,29.406-10.253,44.171
					c-1.4,0.005-2.808,0.028-4.235,0.154c-27.886,2.493-50.015,28.122-49.426,57.248c0.589,29.126,23.674,50.717,51.561,48.226
					c1.457-0.129,2.889-0.359,4.312-0.613c2.916,14.433,6.909,28.532,11.947,42.178c-1.282,0.75-2.559,1.526-3.806,2.4
					c-23.855,16.719-31.477,49.712-17.023,73.69c14.453,23.979,45.511,29.862,69.364,13.143c1.223-0.857,2.374-1.782,3.509-2.722
					c9.427,10.416,19.764,20.068,30.947,28.877c-0.785,1.289-1.556,2.595-2.251,3.967c-13.433,26.469-4.506,57.982,19.939,70.389
					c24.445,12.405,55.151,1.005,68.584-25.465c0.696-1.37,1.295-2.763,1.872-4.158c13.713,3.826,27.606,6.471,41.578,7.929
					c-0.087,1.472-0.154,2.946-0.126,4.438c0.591,29.125,23.675,50.718,51.561,48.227c27.887-2.491,50.016-28.122,49.426-57.247
					c-0.03-1.521-0.158-3.01-0.31-4.488c13.988-3.989,27.726-9.09,41.096-15.259c0.636,1.298,1.297,2.59,2.052,3.842
					c14.453,23.979,45.509,29.863,69.364,13.143c23.856-16.721,31.479-49.711,17.025-73.691c-0.741-1.227-1.552-2.376-2.376-3.509
					c10.563-10.569,20.457-22.044,29.599-34.355C945.031,1272.528,946.23,1273.253,947.497,1273.896z M642.794,1277.818
					c-88.754-45.042-121.168-159.462-72.396-255.566c48.772-96.103,160.258-137.496,249.013-92.454s121.168,159.463,72.396,255.566
					C843.036,1281.468,731.55,1322.86,642.794,1277.818z"/>
			</g>
		</g>
		<g>
			<g>
				<g>
					<g>
						
							<linearGradient id="SVGID_21_" gradientUnits="userSpaceOnUse" x1="2783.252" y1="2160.103" x2="3421.7051" y2="2160.103" gradientTransform="matrix(0.9993 0.0372 -0.0372 0.9993 -165.9438 -32.2633)">
							<stop  offset="0" style="stop-color:#444B8C"/>
							<stop  offset="0.9964" style="stop-color:#26264F"/>
						</linearGradient>
						<path fill="url(#SVGID_21_)" d="M3071.997,1742.474l84.515,948.354c1.279,14.358-8.692,27.127-22.185,28.37l-457.256,47.097
							c-27.357,1.455-41.833-13.382-43.062-28.297l-81.114-984.631c-1.198-14.536,12.389-28.237,39.416-29.232l453.062-6.658
							C3058.778,1717.22,3070.748,1728.467,3071.997,1742.474z"/>
						
							<linearGradient id="SVGID_22_" gradientUnits="userSpaceOnUse" x1="3059.9795" y1="2313.1274" x2="3148.1804" y2="2068.2939" gradientTransform="matrix(0.9993 0.0372 -0.0372 0.9993 -165.9438 -32.2633)">
							<stop  offset="0" style="stop-color:#444B8C"/>
							<stop  offset="0.9964" style="stop-color:#26264F"/>
						</linearGradient>
						<path fill="url(#SVGID_22_)" d="M3092.768,1740.122l85.279,954.029c1.291,14.445-8.733,27.292-22.302,28.544l-474.46,43.786
							c-14.547,1.343-27.485-9.839-28.726-24.845l-81.835-990.575c-1.208-14.623,9.64-26.81,24.079-27.086l471.183-9.001
							C3079.467,1714.716,3091.508,1726.031,3092.768,1740.122z"/>
						<path fill="#FFFFFF" d="M3082.224,1792.764l78.869,884.275c1.202,13.481-8.169,25.456-20.85,26.607l-446.078,40.506
							c-13.537,1.229-25.579-9.199-26.736-23.172l-75.875-916.079c-1.13-13.643,8.966-25.055,22.41-25.363l443.226-10.197
							C3069.792,1769.051,3081.048,1779.59,3082.224,1792.764z"/>
						<g>
							<linearGradient id="SVGID_23_" gradientUnits="userSpaceOnUse" x1="2713.25" y1="2047.5776" x2="3045.2988" y2="1565.8191">
								<stop  offset="0" style="stop-color:#FF9085"/>
								<stop  offset="1" style="stop-color:#FB6FBB"/>
							</linearGradient>
							<path fill="url(#SVGID_23_)" d="M3082.224,1792.764c-1.176-13.174-12.431-23.713-25.035-23.423l-443.225,10.196
								c-13.444,0.31-23.541,11.722-22.409,25.364l10.858,131.11l491.527-11.875L3082.224,1792.764z"/>
						</g>
					</g>
					
						<linearGradient id="SVGID_24_" gradientUnits="userSpaceOnUse" x1="3080.4209" y1="1631.2134" x2="2538.4136" y2="3099.1497" gradientTransform="matrix(0.9993 0.0372 -0.0372 0.9993 -165.9438 -32.2633)">
						<stop  offset="0" style="stop-color:#FFC444"/>
						<stop  offset="0.9964" style="stop-color:#F36F56"/>
					</linearGradient>
					<path fill="url(#SVGID_24_)" d="M2845.57,1748.186c0.429,4.974-3.141,9.092-7.975,9.197c-4.839,0.105-9.109-3.847-9.537-8.826
						c-0.429-4.979,3.148-9.096,7.985-9.194C2840.879,1739.263,2845.143,1743.213,2845.57,1748.186z"/>
				</g>
			</g>
			<g>
				<g>
					
						<linearGradient id="SVGID_25_" gradientUnits="userSpaceOnUse" x1="2078.7197" y1="2078.0444" x2="2332.0825" y2="2627.2249" gradientTransform="matrix(1 0 0.0972 0.995 447.8389 -22.9974)">
						<stop  offset="0.0036" style="stop-color:#E38DDD"/>
						<stop  offset="1" style="stop-color:#9571F6"/>
					</linearGradient>
					<polygon fill="url(#SVGID_25_)" points="2906.877,2287.245 2685.099,2298.196 2654.48,1984.752 2877.492,1979.062 					"/>
					
						<linearGradient id="SVGID_26_" gradientUnits="userSpaceOnUse" x1="2207.8164" y1="1890.9585" x2="2499.4568" y2="2523.1079" gradientTransform="matrix(1 0 0.0972 0.995 447.8389 -22.9974)">
						<stop  offset="0.0036" style="stop-color:#E38DDD"/>
						<stop  offset="1" style="stop-color:#9571F6"/>
					</linearGradient>
					<polygon fill="url(#SVGID_26_)" points="3071.357,2279.123 2941.073,2285.556 2911.877,1978.185 3042.871,1974.842 					"/>
					
						<linearGradient id="SVGID_27_" gradientUnits="userSpaceOnUse" x1="2093.3398" y1="2229.1753" x2="2295.1975" y2="2666.7151" gradientTransform="matrix(1 0 0.0972 0.995 447.8389 -22.9974)">
						<stop  offset="0.0036" style="stop-color:#E38DDD"/>
						<stop  offset="1" style="stop-color:#9571F6"/>
					</linearGradient>
					<polygon fill="url(#SVGID_27_)" points="3094.315,2524.358 2709.771,2550.774 2689.082,2338.976 3075.063,2318.714 					"/>
					
						<linearGradient id="SVGID_28_" gradientUnits="userSpaceOnUse" x1="2130.1563" y1="2497.6597" x2="2264.7576" y2="2789.417" gradientTransform="matrix(1 0 0.0972 0.995 447.8389 -22.9974)">
						<stop  offset="0.0036" style="stop-color:#E38DDD"/>
						<stop  offset="1" style="stop-color:#9571F6"/>
					</linearGradient>
					<polygon fill="url(#SVGID_28_)" points="3106.3,2652.372 2722.649,2682.604 2713.382,2587.727 3097.675,2560.24 					"/>
				</g>
			</g>
			<g opacity="0.48">
				<path fill="#FFFFFF" d="M2978.767,2395.044c-45.997-160.704-180.104-144.635-220.21-289.85
					c-32.939-119.264,43.011-182.135-3.06-281.984c-21.669-46.96-59.629-78.714-98.992-100.414l-61.7,1.179
					c-14.441,0.276-25.288,12.463-24.081,27.086l81.835,990.575c1.24,15.006,14.18,26.188,28.727,24.846l389.014-35.901
					c-24.873-31.556-48.476-70.174-64.856-116.561C2970.77,2515.833,3004.201,2483.914,2978.767,2395.044z"/>
			</g>
		</g>
	</g>
</g>
</svg>
